<?xml version="1.0" encoding="UTF-8" standalone="no"?>
<!DOCTYPE svg PUBLIC "-//W3C//DTD SVG 1.1//EN" "http://www.w3.org/Graphics/SVG/1.1/DTD/svg11.dtd">
<svg width="100%" height="100%" viewBox="0 0 185 42" version="1.1" xmlns="http://www.w3.org/2000/svg" xmlns:xlink="http://www.w3.org/1999/xlink" xml:space="preserve" xmlns:serif="http://www.serif.com/" style="fill-rule:evenodd;clip-rule:evenodd;stroke-linejoin:round;stroke-miterlimit:1.41421;">
    <g id="Artwork">
        <path d="M61.68,38.611L61.68,37.915L62.256,37.915C62.505,37.915 62.863,37.915 62.863,38.233C62.863,38.551 62.664,38.611 62.386,38.611L61.68,38.611ZM62.674,38.989C62.865,39.016 63.058,38.952 63.193,38.814C63.328,38.677 63.39,38.483 63.36,38.293C63.36,37.806 63.042,37.527 62.366,37.527L61.133,37.527L61.133,40.062L61.67,40.062L61.67,38.989L62.127,38.989L62.694,40.072L63.3,40.072L62.674,38.989ZM62.127,41.136C63.42,41.136 64.47,40.09 64.473,38.796C64.477,37.503 63.433,36.451 62.14,36.444C60.847,36.437 59.792,37.477 59.781,38.77C59.776,39.396 60.021,39.998 60.461,40.442C60.902,40.886 61.502,41.136 62.127,41.136M62.127,40.579C61.4,40.603 60.731,40.185 60.434,39.521C60.137,38.858 60.272,38.08 60.774,37.554C61.277,37.029 62.048,36.859 62.724,37.126C63.401,37.393 63.848,38.043 63.857,38.77C63.884,39.218 63.732,39.659 63.433,39.995C63.135,40.331 62.715,40.534 62.266,40.559L62.127,40.559" style="fill:rgb(134,118,78);fill-rule:nonzero;"/>
        <path d="M56.053,29.952C50.705,27.069 41.877,25.976 34.799,25.976C29.772,25.911 24.757,26.513 19.888,27.765C17.706,28.212 15.599,28.972 13.635,30.022C11.965,23.222 10.175,19.216 5.106,15.279C6.86,13.454 8.889,11.914 11.12,10.716C13.108,14.961 15.862,15.737 17.084,15.876C19.033,16.094 20.924,15.133 21.896,13.43C22.481,12.426 22.78,11.282 22.761,10.12C22.717,8.434 22.266,6.783 21.449,5.309C23.836,4.308 26.379,3.733 28.964,3.609C28.891,4.186 28.851,4.767 28.845,5.348C28.845,8.539 29.908,11.064 31.907,12.436C33.698,13.687 36.08,13.687 37.871,12.436C39.979,11.015 41.112,8.37 41.112,5.04C41.126,4.495 41.096,3.95 41.022,3.41C43.545,3.625 46.018,4.239 48.349,5.229C47.481,6.724 46.999,8.412 46.947,10.14C46.928,11.329 47.241,12.5 47.852,13.52C48.919,15.288 50.952,16.231 52.991,15.906C55.457,15.558 57.534,13.629 58.797,10.677C61.029,11.92 63.044,13.518 64.762,15.409C59.384,18.858 57.872,23.262 56.053,29.932M50.198,36.782C45.157,38.016 39.979,38.601 34.789,38.521C29.6,38.6 24.422,38.016 19.381,36.782C15.404,35.708 14.251,34.575 14.042,34.167C15.909,32.703 18.069,31.655 20.375,31.096C25.108,30.057 29.944,29.56 34.789,29.614C39.979,29.547 45.157,30.139 50.198,31.374C54.622,32.567 55.566,33.849 55.566,34.098C55.566,34.346 54.572,35.629 50.198,36.832M68.311,14.414C65.633,11.237 62.286,8.69 58.509,6.959L56.769,6.163L56.262,7.953C55.387,11.144 53.737,12.476 52.484,12.655C51.741,12.791 50.99,12.455 50.596,11.81C49.93,10.726 49.94,8.49 52.027,5.458L53.101,3.976L51.411,3.141C47.604,1.18 43.395,0.129 39.114,0.07L37.016,0L37.464,2.048C38.398,6.392 37.334,8.887 36.022,9.762C35.349,10.251 34.438,10.251 33.765,9.762C32.523,8.907 31.549,6.482 32.523,2.207L33.01,0.05L30.217,0.249C26.24,0.527 23.178,0.746 18.387,3.141L16.667,3.976L17.75,5.517C19.739,8.4 19.739,10.627 19.083,11.75C18.766,12.344 18.121,12.686 17.452,12.615C16.269,12.486 14.629,11.164 13.526,7.853L12.899,5.965L11.179,6.959C6.815,9.384 3.664,11.492 1.427,14.703L0.493,16.045L1.835,17.039C7.392,20.876 8.923,24.077 10.931,32.805C10.761,33.212 10.673,33.647 10.672,34.088C10.672,39.416 23.148,41.852 34.74,41.852C46.331,41.852 58.797,39.416 58.797,34.088C58.798,33.722 58.738,33.359 58.618,33.014L58.807,32.318C61.014,24.187 62.008,20.459 68.092,17.287L70.01,16.293L68.311,14.414Z" style="fill:rgb(134,118,78);fill-rule:nonzero;"/>
        <path d="M34.939,18.779C33.989,18.768 33.21,19.529 33.199,20.478C33.188,21.428 33.949,22.207 34.899,22.218C35.849,22.229 36.627,21.468 36.638,20.518C36.638,19.578 35.879,18.814 34.939,18.808" style="fill:rgb(134,118,78);fill-rule:nonzero;"/>
        <path d="M28.497,19.504C27.547,19.504 26.777,20.274 26.777,21.224C26.777,22.174 27.547,22.944 28.497,22.944C29.447,22.944 30.217,22.174 30.217,21.224C30.217,20.274 29.447,19.504 28.497,19.504Z" style="fill:rgb(134,118,78);fill-rule:nonzero;"/>
        <path d="M41.549,19.445C40.851,19.433 40.215,19.844 39.939,20.485C39.664,21.127 39.803,21.872 40.293,22.37C40.782,22.868 41.524,23.02 42.171,22.756C42.817,22.492 43.239,21.863 43.239,21.164C43.239,20.215 42.469,19.445 41.519,19.445" style="fill:rgb(134,118,78);fill-rule:nonzero;"/>
        <path d="M21.946,20.498C20.996,20.493 20.221,21.258 20.216,22.208C20.21,23.158 20.976,23.932 21.926,23.938C22.876,23.943 23.65,23.178 23.655,22.228C23.658,21.772 23.479,21.334 23.159,21.009C22.838,20.685 22.402,20.501 21.946,20.498Z" style="fill:rgb(134,118,78);fill-rule:nonzero;"/>
        <path d="M15.285,22.616C14.343,22.627 13.588,23.397 13.595,24.339C13.602,25.28 14.37,26.039 15.312,26.035C16.253,26.032 17.015,25.267 17.015,24.326C17.015,23.869 16.832,23.431 16.507,23.11C16.182,22.788 15.742,22.611 15.285,22.616Z" style="fill:rgb(134,118,78);fill-rule:nonzero;"/>
        <path d="M48.11,20.528C47.414,20.524 46.784,20.941 46.514,21.583C46.245,22.225 46.39,22.967 46.881,23.461C47.372,23.954 48.112,24.103 48.756,23.838C49.4,23.572 49.82,22.945 49.82,22.248C49.823,21.793 49.644,21.355 49.323,21.033C49.002,20.71 48.566,20.528 48.11,20.528Z" style="fill:rgb(134,118,78);fill-rule:nonzero;"/>
        <path d="M54.771,22.606C53.828,22.611 53.067,23.379 53.071,24.322C53.075,25.265 53.841,26.027 54.784,26.026C55.727,26.024 56.491,25.259 56.491,24.316C56.491,23.861 56.309,23.424 55.986,23.103C55.664,22.782 55.226,22.603 54.771,22.606" style="fill:rgb(134,118,78);fill-rule:nonzero;"/>
        <path d="M88.789,21.164C88.467,19.116 86.597,17.678 84.534,17.894C82.616,17.894 79.783,19.176 79.783,24.604C79.783,28.054 81.144,31.155 84.534,31.155C86.678,31.249 88.531,29.676 88.789,27.547L92.765,27.547C91.97,31.722 89.226,34.635 84.415,34.635C79.305,34.635 75.647,31.185 75.647,24.554C75.647,17.924 79.524,14.414 84.475,14.414C90.221,14.414 92.547,18.391 92.765,21.204L88.789,21.164Z" style="fill:rgb(0,132,61);fill-rule:nonzero;"/>
        <path d="M95.44,34.088L99.416,34.088L99.416,26.572L103.561,26.572C106.544,26.572 106.683,27.566 106.683,30.211C106.627,31.517 106.768,32.824 107.1,34.088L111.554,34.088L111.554,33.571C110.689,33.253 110.689,32.577 110.689,29.744C110.689,26.165 109.834,25.578 108.264,24.882C110.158,24.177 111.368,22.317 111.246,20.3C111.246,18.639 110.311,14.872 105.212,14.872L95.44,14.872L95.44,34.088ZM99.416,23.332L99.416,18.192L104.387,18.192C106.723,18.192 107.18,19.693 107.18,20.707C107.18,22.606 106.186,23.332 104.098,23.332L99.416,23.332Z" style="fill:rgb(0,132,61);fill-rule:nonzero;"/>
        <path d="M113.483,24.485C113.483,33.491 120.163,34.585 122.708,34.585C125.253,34.585 131.943,33.491 131.943,24.485C131.943,15.478 125.253,14.375 122.708,14.375C120.163,14.375 113.483,15.468 113.483,24.485ZM117.459,24.485C117.459,19.097 120.511,17.765 122.678,17.765C124.845,17.765 127.887,19.097 127.887,24.485C127.887,29.873 124.845,31.195 122.678,31.195C120.511,31.195 117.459,29.853 117.459,24.485" style="fill:rgb(0,132,61);fill-rule:nonzero;"/>
        <path d="M132.162,14.912L136.446,14.912C138.912,25.429 139.15,26.761 139.498,28.948C139.846,26.96 140.134,24.972 142.172,14.912L146.427,14.912C148.724,25.439 148.922,26.433 149.35,28.948C149.678,27.139 149.996,25.479 152.481,14.912L156.567,14.912L151.169,34.118L147.312,34.118C145.324,24.694 144.986,22.835 144.33,19.136L144.27,19.136C143.683,22.835 143.355,24.216 141.288,34.118L137.54,34.118L132.162,14.912Z" style="fill:rgb(0,132,61);fill-rule:nonzero;"/>
        <path d="M170.335,14.882L174.083,14.882L174.083,34.088L170.067,34.088L162.223,20.389L162.184,20.389L162.184,34.088L158.426,34.088L158.426,14.882L162.671,14.882L170.276,28.252L170.335,28.252L170.335,14.882Z" style="fill:rgb(0,132,61);fill-rule:nonzero;"/>
    </g>
</svg>
