<?xml version="1.0" encoding="utf-8"?>
<!-- Generator: Adobe Illustrator 22.1.0, SVG Export Plug-In . SVG Version: 6.00 Build 0)  -->
<svg version="1.1" id="Layer_1" xmlns="http://www.w3.org/2000/svg" xmlns:xlink="http://www.w3.org/1999/xlink" x="0px" y="0px"
	 viewBox="0 0 452 90" style="enable-background:new 0 0 452 90;" xml:space="preserve">
<style type="text/css">
	.st0{fill:#039648;}
	.st1{fill:url(#SVGID_1_);}
	.st2{fill:url(#SVGID_2_);}
	.st3{fill:url(#SVGID_3_);}
	.st4{fill:url(#SVGID_4_);}
	.st5{fill:url(#SVGID_5_);}
	.st6{fill:#FFFFFF;}
	.st7{fill:url(#SVGID_6_);}
	.st8{fill:url(#SVGID_7_);}
</style>
<polygon class="st0" points="107.7,62.5 101.4,62.5 88.1,29.5 96.1,29.5 104.6,52.6 113.2,29.5 121,29.5 "/>
<rect x="135.8" y="29.5" class="st0" width="7.2" height="32.8"/>
<polygon class="st0" points="160.5,62.3 160.5,29.5 167.8,29.5 167.8,55.7 184.1,55.7 184.1,62.3 "/>
<polygon class="st0" points="198.9,62.3 198.9,29.5 206.1,29.5 206.1,55.7 222.5,55.7 222.5,62.3 "/>
<path class="st0" d="M251.8,37.9l-4.4,10.6h8.7L251.8,37.9z M261.7,62.3l-3-7.4h-13.9l-3,7.4h-7.4l14.1-33h6.7l14.1,33H261.7z"/>
<path class="st0" d="M297,62.9c-9.7,0-16.8-7.5-16.8-16.9v-0.1c0-9.3,7-17,17.1-17c6.2,0,9.9,2.1,12.9,5.1l-4.6,5.3
	c-2.5-2.3-5.1-3.7-8.4-3.7c-5.5,0-9.5,4.6-9.5,10.2v0.1c0,5.6,3.9,10.3,9.5,10.3c3.7,0,6-1.5,8.6-3.8l4.6,4.6
	C307,60.6,303.3,62.9,297,62.9"/>
<polygon class="st0" points="325.5,62.3 325.5,29.5 350.3,29.5 350.3,35.9 332.7,35.9 332.7,42.6 348.2,42.6 348.2,49 332.7,49 
	332.7,55.9 350.5,55.9 350.5,62.3 "/>
<path class="st0" d="M386.4,40.7c0-3.1-2.1-4.7-5.7-4.7h-7.2v9.4h7.3C384.4,45.4,386.4,43.6,386.4,40.7L386.4,40.7z M386.2,62.3
	l-7-10.5h-5.7v10.5h-7.2V29.5h15c7.7,0,12.4,4.1,12.4,10.8v0.1c0,5.3-2.9,8.6-7,10.2l8,11.7H386.2z"/>
<path class="st0" d="M435.4,45.9c0-5.6-4.1-10.3-9.9-10.3c-5.8,0-9.8,4.6-9.8,10.2v0.1c0,5.6,4.1,10.3,9.9,10.3
	C431.4,56.2,435.4,51.6,435.4,45.9L435.4,45.9z M425.5,62.9c-10.1,0-17.4-7.6-17.4-16.9v-0.1c0-9.3,7.4-17,17.5-17
	c10.1,0,17.4,7.6,17.4,16.9v0.1C443,55.2,435.6,62.9,425.5,62.9"/>
<g>
	<linearGradient id="SVGID_1_" gradientUnits="userSpaceOnUse" x1="55.8655" y1="75.9546" x2="55.8655" y2="16.0454">
		<stop  offset="0" style="stop-color:#B3B3B3"/>
		<stop  offset="0.2539" style="stop-color:#B0B0B0"/>
		<stop  offset="0.4067" style="stop-color:#A8A8A8"/>
		<stop  offset="0.5327" style="stop-color:#999999"/>
		<stop  offset="0.6441" style="stop-color:#858585"/>
		<stop  offset="0.7459" style="stop-color:#6B6B6B"/>
		<stop  offset="0.8407" style="stop-color:#4A4A4A"/>
		<stop  offset="0.9284" style="stop-color:#252525"/>
		<stop  offset="1" style="stop-color:#000000"/>
	</linearGradient>
	<path class="st1" d="M79.5,17.3c0-0.7-0.5-1.2-1.2-1.2l0,0c0,0-6.7,0-8.9,0c-1.1,0-1.9,1.1-1.9,1.1L32.3,64c0,0,5.4,12,12,12
		c6.6,0,12-12,12-12l23.1-46.2l0,0C79.4,17.6,79.5,17.5,79.5,17.3z"/>
	<linearGradient id="SVGID_2_" gradientUnits="userSpaceOnUse" x1="32.6282" y1="75.9546" x2="32.6282" y2="16.0454">
		<stop  offset="0" style="stop-color:#B3B3B3"/>
		<stop  offset="0.2539" style="stop-color:#B0B0B0"/>
		<stop  offset="0.4067" style="stop-color:#A8A8A8"/>
		<stop  offset="0.5327" style="stop-color:#999999"/>
		<stop  offset="0.6441" style="stop-color:#858585"/>
		<stop  offset="0.7459" style="stop-color:#6B6B6B"/>
		<stop  offset="0.8407" style="stop-color:#4A4A4A"/>
		<stop  offset="0.9284" style="stop-color:#252525"/>
		<stop  offset="1" style="stop-color:#000000"/>
	</linearGradient>
	<path class="st2" d="M9,17.3c0-0.7,0.5-1.2,1.2-1.2l0,0c0,0,6.7,0,8.9,0c1.1,0,1.9,1.1,1.9,1.1L56.2,64c0,0-5.4,12-12,12
		c-6.6,0-12-12-12-12L9.1,17.8l0,0C9.1,17.6,9,17.5,9,17.3z"/>
	<g>
		<linearGradient id="SVGID_3_" gradientUnits="userSpaceOnUse" x1="9.4574" y1="45.9968" x2="79.0395" y2="45.9968">
			<stop  offset="0.2253" style="stop-color:#FFFFFF"/>
			<stop  offset="0.2316" style="stop-color:#D2D2D2"/>
			<stop  offset="0.2388" style="stop-color:#A6A6A6"/>
			<stop  offset="0.2468" style="stop-color:#7F7F7F"/>
			<stop  offset="0.2554" style="stop-color:#5C5C5C"/>
			<stop  offset="0.2648" style="stop-color:#3F3F3F"/>
			<stop  offset="0.2752" style="stop-color:#282828"/>
			<stop  offset="0.287" style="stop-color:#161616"/>
			<stop  offset="0.3012" style="stop-color:#090909"/>
			<stop  offset="0.32" style="stop-color:#020202"/>
			<stop  offset="0.3626" style="stop-color:#000000"/>
		</linearGradient>
		<path class="st3" d="M78.3,16.5h-8.9c-0.9,0-1.6,0.9-1.6,0.9L44.2,48.7L20.8,17.4c0,0-0.7-0.9-1.6-0.9l-8.9,0
			c-0.4,0-0.8,0.4-0.8,0.8c0,0.1,0,0.2,0.1,0.4l23.1,46.2c0,0,0,0.1,0.1,0.2h0c0.2,0.4,0.7,1.4,1.3,2.5c0,0,0.1,0.1,0.1,0.1
			c0.2,0.3,0.3,0.5,0.5,0.8c0.1,0.1,0.1,0.2,0.2,0.3c0.1,0.2,0.3,0.5,0.5,0.7c0.1,0.1,0.2,0.3,0.3,0.4c0.1,0.2,0.3,0.4,0.4,0.6
			c0.1,0.1,0.2,0.3,0.3,0.4c0.2,0.2,0.3,0.4,0.5,0.6c0.1,0.2,0.2,0.3,0.4,0.4c0.2,0.2,0.3,0.4,0.5,0.6c0.1,0.1,0.3,0.3,0.4,0.4
			c0.2,0.2,0.3,0.4,0.5,0.5c0.1,0.1,0.3,0.3,0.4,0.4c0.2,0.2,0.4,0.3,0.5,0.5c0.1,0.1,0.3,0.2,0.4,0.4c0.2,0.1,0.4,0.3,0.6,0.4
			c0.1,0.1,0.3,0.2,0.4,0.3c0.2,0.1,0.4,0.2,0.6,0.3c0.1,0.1,0.3,0.1,0.4,0.2c0.2,0.1,0.5,0.2,0.7,0.2c0.1,0,0.2,0.1,0.4,0.1
			c0.4,0.1,0.7,0.1,1.1,0.1c0.4,0,0.8-0.1,1.1-0.1c0.1,0,0.3-0.1,0.4-0.1c0.2-0.1,0.5-0.1,0.7-0.2c0.1-0.1,0.3-0.1,0.4-0.2
			c0.2-0.1,0.4-0.2,0.6-0.3c0.2-0.1,0.3-0.2,0.4-0.3c0.2-0.1,0.4-0.3,0.6-0.4c0.1-0.1,0.3-0.2,0.4-0.4c0.2-0.2,0.4-0.3,0.5-0.5
			c0.1-0.1,0.3-0.3,0.4-0.4c0.2-0.2,0.4-0.4,0.5-0.5c0.1-0.1,0.3-0.3,0.4-0.4c0.2-0.2,0.3-0.4,0.5-0.6c0.1-0.1,0.2-0.3,0.3-0.4
			c0.2-0.2,0.3-0.4,0.5-0.6c0.1-0.1,0.2-0.3,0.3-0.4c0.2-0.2,0.3-0.5,0.5-0.7c0.1-0.1,0.1-0.2,0.2-0.3c0.2-0.3,0.4-0.6,0.5-0.8
			c0-0.1,0.1-0.1,0.1-0.2c1-1.6,1.7-3,1.9-3.5h0c0.1-0.1,0.1-0.2,0.1-0.2L79,17.6c0.1-0.1,0.1-0.2,0.1-0.3
			C79,16.8,78.7,16.5,78.3,16.5z"/>
	</g>
	<linearGradient id="SVGID_4_" gradientUnits="userSpaceOnUse" x1="55.9351" y1="16.8998" x2="55.9351" y2="75.094">
		<stop  offset="0" style="stop-color:#F2F2F2"/>
		<stop  offset="0.1829" style="stop-color:#EFEFEF"/>
		<stop  offset="0.3299" style="stop-color:#E5E5E5"/>
		<stop  offset="0.4644" style="stop-color:#D4D4D4"/>
		<stop  offset="0.5914" style="stop-color:#BCBCBC"/>
		<stop  offset="0.7133" style="stop-color:#9E9E9E"/>
		<stop  offset="0.8311" style="stop-color:#787878"/>
		<stop  offset="0.9438" style="stop-color:#4C4C4C"/>
		<stop  offset="1" style="stop-color:#333333"/>
	</linearGradient>
	<path class="st4" d="M44.3,75.1c-5.3,0-10-8.9-11-11l34.8-46.4c0.2-0.2,0.7-0.7,1.3-0.7h8.9c0.2,0,0.3,0.2,0.3,0.4L55.5,63.6
		C55.4,63.7,50.2,75.1,44.3,75.1L44.3,75.1z"/>
	<linearGradient id="SVGID_5_" gradientUnits="userSpaceOnUse" x1="32.5692" y1="16.8998" x2="32.5692" y2="75.094">
		<stop  offset="0" style="stop-color:#F2F2F2"/>
		<stop  offset="0.1829" style="stop-color:#EFEFEF"/>
		<stop  offset="0.3299" style="stop-color:#E5E5E5"/>
		<stop  offset="0.4644" style="stop-color:#D4D4D4"/>
		<stop  offset="0.5914" style="stop-color:#BCBCBC"/>
		<stop  offset="0.7133" style="stop-color:#9E9E9E"/>
		<stop  offset="0.8311" style="stop-color:#787878"/>
		<stop  offset="0.9438" style="stop-color:#4C4C4C"/>
		<stop  offset="1" style="stop-color:#333333"/>
	</linearGradient>
	<path class="st5" d="M44.3,75.1c-6,0-11.2-11.4-11.2-11.5L9.9,17.4c0-0.3,0.1-0.5,0.3-0.5l8.9,0c0.6,0,1.1,0.5,1.3,0.8l34.8,46.4
		C54.2,66.2,49.5,75.1,44.3,75.1L44.3,75.1z"/>
	<g>
		<path d="M18.5,32.6L11,17.8C11,17.8,14.1,24.2,18.5,32.6z M45.9,72.2C45.8,72.2,45.8,72.2,45.9,72.2c-0.3,0.1-0.5,0.2-0.7,0.2
			c-0.3,0.1-0.6,0.1-0.9,0.1c0,0,0,0,0,0v0h-0.1v0c0,0,0,0,0,0c-0.3,0-0.6,0-0.9-0.1c-0.2,0-0.4-0.1-0.6-0.2c0,0,0,0-0.1,0
			c-4.5-2.3-16.4-24.3-24.2-39.6c0,0,21.2,41.5,25.7,41.6v0h0.1h0l0,0h0.1l0,0h0h0.2v0C49,74,70.1,32.6,70.1,32.6
			C62.2,47.9,50.4,69.9,45.9,72.2z M70.1,32.6c4.3-8.4,7.4-14.8,7.4-14.8L70.1,32.6z"/>
	</g>
	<path class="st6" d="M20.6,17.9l23.6,32.6l0,13.4v0.2l0,0h-0.3C33.7,64.1,21.2,19.8,20.6,17.9"/>
	<path d="M67.9,17.9L44.2,50.5l0,13.4v0.2l0,0h0.2C54.8,64.1,67.3,19.8,67.9,17.9"/>
	<path d="M44.3,50.6L20.7,17.9c0,0,13.2,46.3,23.5,46.1V50.6z"/>
	<g>
		<linearGradient id="SVGID_6_" gradientUnits="userSpaceOnUse" x1="44.25" y1="40.9443" x2="67.791" y2="40.9443">
			<stop  offset="0" style="stop-color:#1A1A1A"/>
			<stop  offset="2.555596e-02" style="stop-color:#393939"/>
			<stop  offset="6.479736e-02" style="stop-color:#626262"/>
			<stop  offset="0.1089" style="stop-color:#888888"/>
			<stop  offset="0.1569" style="stop-color:#A8A8A8"/>
			<stop  offset="0.21" style="stop-color:#C4C4C4"/>
			<stop  offset="0.2699" style="stop-color:#DADADA"/>
			<stop  offset="0.3399" style="stop-color:#EAEAEA"/>
			<stop  offset="0.4264" style="stop-color:#F6F6F6"/>
			<stop  offset="0.5478" style="stop-color:#FDFDFD"/>
			<stop  offset="0.8846" style="stop-color:#FFFFFF"/>
		</linearGradient>
		<path class="st7" d="M44.3,50.6l23.5-32.7c0,0-13.2,46.3-23.5,46.1V50.6z"/>
	</g>
	<linearGradient id="SVGID_7_" gradientUnits="userSpaceOnUse" x1="32.0873" y1="57.2769" x2="56.4065" y2="57.2769">
		<stop  offset="0.4121" style="stop-color:#FFFFFF"/>
		<stop  offset="0.4323" style="stop-color:#DDDDDD"/>
		<stop  offset="0.4806" style="stop-color:#8F8F8F"/>
		<stop  offset="0.5237" style="stop-color:#525252"/>
		<stop  offset="0.56" style="stop-color:#252525"/>
		<stop  offset="0.588" style="stop-color:#0A0A0A"/>
		<stop  offset="0.6044" style="stop-color:#000000"/>
	</linearGradient>
	<path class="st8" d="M44.3,64.8c-0.1,0-0.1,0-0.2,0c-3.3-0.1-7.3-5.4-12-15c4.8,8,8.1,14.2,12.2,14.2c4.1,0,7.4-6.2,12.2-14.2
		C50,62.7,46.4,64.8,44.3,64.8L44.3,64.8L44.3,64.8z"/>
</g>
</svg>
